<svg height="478" width="720" xmlns="http://www.w3.org/2000/svg">
<rect height="478" fill="#555" width="720"></rect>
<text fill="#7f7" font-family="Courier New" font-size="12" xml:space="preserve">
<tspan x="10" y="26">5 megabytes installed</tspan>
<tspan x="10" y="42"></tspan>
<tspan x="10" y="58">node_modules</tspan>
<tspan x="10" y="74">└─┬ monq@0.3.7 </tspan>
<tspan x="10" y="90">  └─┬ mongojs@2.4.0 </tspan>
<tspan x="10" y="106">    ├── each-series@1.0.0 </tspan>
<tspan x="10" y="122">    ├─┬ mongodb@2.2.26 </tspan>
<tspan x="10" y="138">    │ ├── es6-promise@3.2.1 </tspan>
<tspan x="10" y="154">    │ ├─┬ mongodb-core@2.1.10 </tspan>
<tspan x="10" y="170">    │ │ ├── bson@1.0.4 </tspan>
<tspan x="10" y="186">    │ │ └─┬ require_optional@1.0.0 </tspan>
<tspan x="10" y="202">    │ │   ├── resolve-from@2.0.0 </tspan>
<tspan x="10" y="218">    │ │   └── semver@5.3.0 </tspan>
<tspan x="10" y="234">    │ └── readable-stream@2.2.7 </tspan>
<tspan x="10" y="250">    ├─┬ once@1.4.0 </tspan>
<tspan x="10" y="266">    │ └── wrappy@1.0.2 </tspan>
<tspan x="10" y="282">    ├── parse-mongo-url@1.1.1 </tspan>
<tspan x="10" y="298">    ├─┬ readable-stream@2.2.9 </tspan>
<tspan x="10" y="314">    │ ├── buffer-shims@1.0.0 </tspan>
<tspan x="10" y="330">    │ ├── core-util-is@1.0.2 </tspan>
<tspan x="10" y="346">    │ ├── inherits@2.0.3 </tspan>
<tspan x="10" y="362">    │ ├── isarray@1.0.0 </tspan>
<tspan x="10" y="378">    │ ├── process-nextick-args@1.0.7 </tspan>
<tspan x="10" y="394">    │ ├── string_decoder@1.0.0 </tspan>
<tspan x="10" y="410">    │ └── util-deprecate@1.0.2 </tspan>
<tspan x="10" y="426">    ├── thunky@0.1.0 </tspan>
<tspan x="10" y="442">    ├── to-mongodb-core@2.0.0 </tspan>
<tspan x="10" y="458">    └── xtend@4.0.1</tspan>
</text>
</svg>
